<svg xmlns="http://www.w3.org/2000/svg" width="32" height="25" viewBox="0 0 32 25">
    <g fill="none" fill-rule="evenodd">
        <g>
            <g>
                <g transform="translate(-1392 -1961) translate(1393 1962)">
                    <g fill="#337AB7" fill-rule="nonzero" stroke="#337AB7">
                        <path stroke-width=".5" d="M14.906 18.582c-.005-.01-.01-.01-.02-.01h-2.648v-1.015c2.288-.994 3.82-3.195 3.951-5.685.873-.238 1.39-1.136 1.157-2.009-.076-.278-.223-.532-.426-.735-.203-.198-.452-.34-.726-.42V3.66c.005-1.228-.826-2.303-2.018-2.607L10.473.11c-.578-.147-1.181-.147-1.76 0l-3.677.939c-1.192.304-2.028 1.374-2.034 2.607l.051 5.046c-.279.066-.532.213-.73.421-.31.31-.482.725-.482 1.161-.01.74.482 1.395 1.197 1.583.142 2.576 1.775 4.838 4.174 5.782v.923H4.615C2.08 18.567.02 18.902.01 21.437v1.334c0 .224.183.406.406.406.223 0 .406-.182.406-.406v-1.313c0-2.044 1.607-2.009 3.651-2.095l.817.02h2.186l1.871 1.847v1.541c0 .224.183.406.406.406.223 0 .406-.182.406-.406V21.23l1.856-1.847h2.506l.811.016c1.782.148 3.348.583 3.348 2.069v1.313c0 .224.182.406.405.406.223 0 .406-.182.406-.406v-1.313c.005-2.536-2.049-2.88-4.585-2.886zm1.288-8.997c.056.035.107.07.153.116.157.157.243.365.238.589.01.289-.142.557-.39.705v-1.41zm-13.136 1.41c-.253-.143-.405-.416-.4-.705 0-.224.09-.432.248-.589.046-.045.096-.081.152-.116v1.41zM5.244 1.84L8.916.902c.447-.117.913-.117 1.36 0l3.697.943c.832.213 1.41.964 1.405 1.82v3.622c-1.623.75-3.17.685-4.61-.193-.71-.441-1.32-1.014-1.801-1.694-.06-.101-.167-.167-.29-.182-2.068-.229-3.894.928-4.807 1.699L3.82 3.66c.004-.863.587-1.613 1.424-1.821zm6.183 16.945l-1.694 1.699-1.704-1.7v-.871c.517.121 1.044.187 1.577.187.619.005 1.232-.081 1.82-.253v.938zm.218-1.856c-.644.243-1.334.365-2.024.365-.619 0-1.227-.102-1.815-.294-2.359-.787-3.941-2.993-3.936-5.473v-3.52c.456-.451 2.358-2.14 4.55-2.003.522.7 1.17 1.293 1.911 1.76.715.441 1.684.842 2.871.842.75-.005 1.486-.152 2.18-.442v3.358c0 2.41-1.49 4.56-3.737 5.407z"/>
                        <path stroke-width=".2" d="M8.029 11.35c-.223 0-.406-.183-.406-.406v-.264c0-.355-.284-.644-.64-.65H6.98c-.168 0-.33.072-.447.189-.116.121-.182.289-.177.456v.264c0 .223-.183.405-.406.405-.223 0-.406-.182-.406-.405v-.264c-.005-.385.148-.756.416-1.03V9.64c.563-.568 1.481-.568 2.05 0 .273.274.425.65.425 1.035v.264c0 .228-.182.41-.405.41zM13.303 11.35c-.223 0-.405-.183-.405-.406v-.264c0-.355-.29-.65-.644-.65-.168 0-.33.072-.447.189-.116.121-.182.289-.177.456v.264c0 .223-.183.405-.406.405-.223 0-.406-.182-.406-.405v-.264c-.005-.385.147-.756.416-1.03 0 0-.01-.005-.005-.005.568-.568 1.491-.568 2.06 0 .268.28.42.65.42 1.04v.264c0 .223-.182.406-.406.406z"/>
                        <path stroke-width=".5" d="M10.808 3.052h-.801v-.77c0-.224-.183-.407-.406-.407-.223 0-.406.183-.406.406v.771h-.76c-.224 0-.406.183-.406.406 0 .223.182.405.405.405h.761v.787c0 .223.183.405.406.405.223 0 .406-.182.406-.405v-.787h.801c.223 0 .406-.182.406-.405 0-.223-.183-.406-.406-.406z"/>
                    </g>
                    <path stroke="#337AB7" stroke-linejoin="round" stroke-width="1.2" d="M20 5h8.42c.552 0 1 .448 1 1v5c0 .552-.448 1-1 1h-4.307c-.168 0-.333.042-.48.123l-2.252 1.231h0V12H20c-.552 0-1-.448-1-1V6c0-.552.448-1 1-1z"/>
                    <circle cx="21.75" cy="8.75" r="1" fill="#337AB7"/>
                    <circle cx="24.25" cy="8.75" r="1" fill="#337AB7"/>
                    <circle cx="26.75" cy="8.75" r="1" fill="#337AB7"/>
                </g>
            </g>
        </g>
    </g>
</svg>
